# xmcd CD database file
#
# Track frame offsets:
#	150
#	13582
#	23860
#	38754
#	52584
#	66876
#	82784
#	98544
#	110519
#	124406
#	137259
#	150729
#	173409
#	188029
#	201096
#	213900
#	229225
#	245365
#	262797
#	276325
#
# Disc length: 3907 seconds
#
# Revision: 0
# Processed by: cddbd v1.5.2PL0 Copyright (c) Steve Scherf et al.
# Submitted via: CDex 1.70beta2
#
DISCID=f80f4114
DTITLE=Houston, Tracey - Cdn. - Cty - Compilation
DYEAR=1900
DGENRE=Country
TTITLE0=What's She Got That I Ain't Got
TTITLE1=He's Not For Real
TTITLE2=You Keep On Trying
TTITLE3=Lonesome Town
TTITLE4=Falling For You
TTITLE5=I'm Tired Of Being Something
TTITLE6=Ain't Even Leavin'
TTITLE7=Is There Love After You
TTITLE8=Best Years of My Life
TTITLE9=I'll Take You Back
TTITLE10=Count Me Out
TTITLE11=Talking Like Strangers
TTITLE12=The Girl In Oklahoma
TTITLE13=Lonesome
TTITLE14=You're Walkin' and Talkin' ( In My Sleep Again )
TTITLE15=The Kind Of Man I Never Find
TTITLE16=Deja Blue
TTITLE17=Middle Of The Bed
TTITLE18=I'm Not The Same Girl
TTITLE19=Hot Steamy Night In Dixie
EXTD=
EXTT0=
EXTT1=
EXTT2=
EXTT3=
EXTT4=
EXTT5=
EXTT6=
EXTT7=
EXTT8=
EXTT9=
EXTT10=
EXTT11=
EXTT12=
EXTT13=
EXTT14=
EXTT15=
EXTT16=
EXTT17=
EXTT18=
EXTT19=
PLAYORDER=
